<svg width="96" height="50" viewBox="0 0 96 50" fill="none" xmlns="http://www.w3.org/2000/svg">
<path fill-rule="evenodd" clip-rule="evenodd" d="M75.3079 31.6763C76.7887 31.6763 77.7778 33.1169 77.2745 34.5457C77.0264 35.2613 76.5398 35.8058 76.0527 36.3508C76.0112 36.3973 75.9697 36.4437 75.9283 36.4903C75.583 36.8756 75.2494 37.2729 74.9626 37.6997C74.5529 38.3104 74.348 39.0159 74.2134 39.7392C74.1724 39.9644 74.1197 40.1838 74.0495 40.3972C73.6866 41.5711 72.7267 42.1224 71.562 41.7608C70.128 41.3162 69.3262 40.249 68.9399 38.8321C68.6648 37.8124 68.8228 36.846 69.4374 35.9923C69.6247 35.7255 69.9407 35.5299 70.2334 35.3757C70.4638 35.2542 70.7257 35.1924 70.9836 35.1316C71.0401 35.1183 71.0965 35.105 71.1523 35.0911C71.8312 34.9251 72.2995 34.5161 72.6448 33.9113C72.9257 33.4193 73.2242 32.9272 73.5871 32.4944C74.0261 31.9727 74.6114 31.6763 75.3079 31.6763ZM90.3669 37.8835C90.2909 39.425 89.6587 40.6522 88.336 41.4703C87.8151 41.7905 87.2473 41.9446 86.6269 41.832C85.9831 41.7134 85.509 41.3636 85.269 40.747C85.1227 40.3617 85.0173 39.9585 84.9354 39.5554C84.6954 38.3934 84.1687 37.4033 83.3375 36.5555C82.9161 36.1227 82.5357 35.6425 82.1962 35.1445C81.886 34.6939 81.7221 34.1663 81.7865 33.6031C81.9796 31.9372 83.7648 31.1368 85.1402 32.0972C85.7607 32.53 86.1821 33.1347 86.4923 33.8165C86.8318 34.5457 87.3878 34.9489 88.1428 35.1327C88.4764 35.2157 88.8101 35.3402 89.1203 35.4943C90.0158 35.939 90.2792 36.763 90.3611 37.6938C90.3699 37.7338 90.3688 37.7838 90.3677 37.8338V37.8339C90.3674 37.8456 90.3672 37.8573 90.367 37.8689C90.367 37.8738 90.3669 37.8787 90.3669 37.8835ZM80.1443 41.9778C79.968 41.9495 79.7917 41.9212 79.6158 41.8912C79.6158 41.897 79.6152 41.9033 79.6145 41.9099C79.6132 41.9237 79.6118 41.9385 79.6158 41.9505C79.4987 41.9594 79.3816 41.9653 79.2646 41.9713C79.1475 41.9772 79.0305 41.9831 78.9134 41.992C78.2462 42.0454 77.5906 42.158 77.0054 42.5019C75.8991 43.154 75.8231 44.5057 76.859 45.2646C77.0483 45.404 77.2597 45.5146 77.47 45.6247C77.5458 45.6644 77.6215 45.704 77.696 45.7448C77.8079 45.8071 77.9223 45.8668 78.0368 45.9266C78.2274 46.0262 78.4181 46.1257 78.5974 46.2369C78.89 46.4207 79.1007 46.6875 79.1183 47.0491C79.1592 47.891 78.7612 48.5905 77.7955 48.5965C77.6024 48.5965 77.3916 48.5965 77.2161 48.5313C76.9674 48.4411 76.7252 48.3362 76.4827 48.2312C76.2628 48.1361 76.0426 48.0408 75.8172 47.9562C75.6826 47.9028 75.4777 47.9028 75.3665 47.9799C75.2729 48.0451 75.2202 48.2585 75.2378 48.389C75.2553 48.4957 75.3899 48.6083 75.4953 48.6854C77.0522 49.7703 78.7671 50.1853 80.6342 49.9245C81.7814 49.7644 82.829 49.3316 83.7772 48.6498C84.0113 48.4838 84.0699 48.2645 83.9469 48.0688C83.8182 47.8673 83.6075 47.8317 83.3558 47.974C83.3119 47.9977 83.2695 48.0214 83.2271 48.0451C83.1846 48.0688 83.1422 48.0925 83.0983 48.1163C82.513 48.4364 81.9043 48.6558 81.2253 48.5905C80.6693 48.5313 80.283 48.1933 80.1425 47.6538C79.9786 47.0195 80.1074 46.5808 80.5991 46.2488C80.7722 46.1318 80.9591 46.0369 81.1461 45.9419C81.2815 45.8731 81.4169 45.8042 81.5472 45.727C81.6228 45.6829 81.6994 45.64 81.7761 45.597C82.0502 45.4434 82.3253 45.2893 82.5539 45.0808C83.2973 44.405 83.2329 43.2548 82.4252 42.662C82.1794 42.4782 81.8867 42.3181 81.5941 42.247C81.1172 42.1338 80.6309 42.0558 80.1443 41.9778Z" fill="black"/>
<path fill-rule="evenodd" clip-rule="evenodd" d="M96.0002 26.0843C96.0002 28.4041 94.8188 30.4484 93.0239 31.6501C91.4503 27.3508 87.9923 23.9574 83.6482 22.4665C84.8413 20.6144 86.9238 19.3877 89.2932 19.3877C92.9974 19.3877 96.0002 22.3859 96.0002 26.0843ZM63.2842 26.0845C63.2842 28.4044 64.4657 30.4487 66.2606 31.6504C67.8342 27.3511 71.2921 23.9577 75.6362 22.4668C74.4431 20.6147 72.3606 19.3879 69.9912 19.3879C66.287 19.3879 63.2842 22.3861 63.2842 26.0845Z" fill="black"/>
</svg>
